<?xml version="1.0" encoding="utf-8"?>
<!-- Generator: Adobe Illustrator 17.1.0, SVG Export Plug-In . SVG Version: 6.00 Build 0)  -->
<!DOCTYPE svg PUBLIC "-//W3C//DTD SVG 1.1//EN" "http://www.w3.org/Graphics/SVG/1.1/DTD/svg11.dtd">
<svg version="1.1" id="Layer_1" xmlns="http://www.w3.org/2000/svg" xmlns:xlink="http://www.w3.org/1999/xlink" x="0px" y="0px"
	 viewBox="0 0 125 125" enable-background="new 0 0 125 125" xml:space="preserve">
<path fill="#1CE1DB" d="M40.1,114.3h2l1.4-3h5.3l1.3,3h2l-5.9-13.2L40.1,114.3z M44.3,109.5l1.9-4.2l1.8,4.2H44.3z M28.3,100.9
	l2.3,13.3h-1.9l-1.2-7.5l-3.7,8.1l-3.6-8.1l-1.3,7.5H17l2.6-13.3l4.3,9.6L28.3,100.9z M38.6,40.5L22.2,73.3h24.6l6.8,13.6H15.4H0
	l38.6-77l31.7,63.3h32.6L86.5,40.5L73.9,65.6L66.1,50L86.5,9.8l38.5,77H61.7L38.6,40.5z M87,101.9h2l-5.6,13.3L78,101.9h2l3.4,8.6
	L87,101.9z M61.9,101.9h6.8v1.8h-5v3h4.8v1.8h-4.8v4.1h5v1.8h-6.8V101.9z M98.8,101.9h6.8v1.8h-5v3h4.8v1.8h-4.8v4.1h5v1.8h-6.8
	V101.9z"/>
</svg>
