<?xml version="1.0" encoding="utf-8"?>
<!-- Generator: Adobe Illustrator 17.1.0, SVG Export Plug-In . SVG Version: 6.00 Build 0)  -->
<!DOCTYPE svg PUBLIC "-//W3C//DTD SVG 1.1//EN" "http://www.w3.org/Graphics/SVG/1.1/DTD/svg11.dtd">
<svg version="1.1" id="Layer_1" xmlns="http://www.w3.org/2000/svg" xmlns:xlink="http://www.w3.org/1999/xlink" x="0px" y="0px"
	 viewBox="0 0 300 300" enable-background="new 0 0 300 300" xml:space="preserve">
<g>
	<path fill="#DDFD5A" d="M96.3,274.2h4.8l3.3-7.2h12.7l3.1,7.2h4.9L111,242.6L96.3,274.2z M106.3,262.8l4.6-10.1l4.4,10.1H106.3z"/>
	<polygon fill="#DDFD5A" points="57.4,265.3 47.2,242.2 40.9,274.2 45.6,274.2 48.8,256.2 57.3,275.6 66.1,256.2 69,274.2 
		73.6,274.2 68,242.2 	"/>
	<polygon fill="#DDFD5A" points="148.2,208.4 300,208.4 207.6,23.5 158.7,120 177.4,157.4 207.6,97.1 246.8,175.5 168.5,175.5 
		92.5,23.5 0,208.4 37.1,208.4 128.6,208.4 112.2,175.8 53.3,175.8 92.5,97.1 	"/>
	<polygon fill="#DDFD5A" points="200.5,265.1 192.2,244.4 187.3,244.4 200.4,276.5 213.7,244.4 208.8,244.4 	"/>
	<polygon fill="#DDFD5A" points="148.7,274.2 165.1,274.2 165.1,270 153.1,270 153.1,260 164.7,260 164.7,255.8 153.1,255.8 
		153.1,248.7 165.1,248.7 165.1,244.4 148.7,244.4 	"/>
	<polygon fill="#DDFD5A" points="237.2,274.2 253.6,274.2 253.6,270 241.7,270 241.7,260 253.3,260 253.3,255.8 241.7,255.8 
		241.7,248.7 253.6,248.7 253.6,244.4 237.2,244.4 	"/>
</g>
</svg>
